<?xml version="1.0" encoding="UTF-8"?>
<svg xmlns="http://www.w3.org/2000/svg" version="1.1" viewBox="0 0 869.44 364.39">
  <!-- Generator: Adobe Illustrator 29.8.1, SVG Export Plug-In . SVG Version: 2.1.1 Build 2)  -->
  <defs>
    <style>
      .st0 {
        fill: #154464;
      }

      .st1 {
        fill: #154464;
      }

      .st2 {
        fill: #006ba9;
      }

      .st3 {
        display: none;
      }
    </style>
  </defs>
  <g id="Ebene_2" class="st3">
    <path d="M9.68,441.66h22.43c1.1,0,1.6-.43,1.95-1.71h.86v9.44h-.86c-.35-1.28-.86-1.71-1.95-1.71H0v-.86c1.28-.35,1.71-.86,1.71-1.95v-30.87c0-1.1-.43-1.6-1.71-1.95v-.86h11.39v.86c-1.28.32-1.71.86-1.71,1.95v27.67Z"/>
    <path d="M53.51,420.47v24.48c0,1.1.43,1.6,1.71,2v.72h-10.58v-.75c1.26-.32,1.71-.88,1.71-1.98v-24.48c0-1.1-.43-1.58-1.71-1.98v-.75h10.58v.75c-1.28.35-1.71.88-1.71,1.98Z"/>
    <path d="M75.93,434.96v7.3h19c1.1,0,1.63-.43,1.98-1.74h.75v8.87h-.75c-.32-1.26-.88-1.71-1.98-1.71h-27.88v-.75c1.26-.32,1.71-.88,1.71-1.98v-24.48c0-1.1-.43-1.58-1.71-1.98v-.75h27.05c1.15,0,1.66-.43,2-1.71h.72v8.87h-.72c-.35-1.31-.86-1.74-2-1.74h-18.18v6.58h11.28c1.1,0,1.6-.43,2-1.71h.72v8.66h-.72c-.35-1.28-.86-1.74-2-1.74h-11.28Z"/>
    <path d="M125.59,423.17v21.78c0,1.1.43,1.6,1.71,2v.72h-10.58v-.75c1.26-.32,1.71-.88,1.71-1.98v-21.78h-8.82c-1.15,0-1.66.45-2,1.74h-.72v-8.87h.75c.32,1.26.83,1.71,1.98,1.71h24.81c1.15,0,1.66-.43,2-1.71h.72v8.87h-.72c-.35-1.28-.86-1.74-2-1.74h-8.82Z"/>
    <path d="M172.7,434.66h-16.71v10.29c0,1.1.43,1.6,1.71,2v.72h-10.58v-.75c1.26-.32,1.71-.88,1.71-1.98v-24.48c0-1.1-.43-1.58-1.71-1.98v-.75h10.58v.75c-1.28.35-1.71.88-1.71,1.98v8.77h16.71v-8.77c0-1.1-.4-1.58-1.71-1.98v-.75h10.58v.75c-1.28.35-1.71.88-1.71,1.98v24.48c0,1.1.43,1.6,1.71,2v.72h-10.58v-.75c1.26-.32,1.71-.88,1.71-1.98v-10.29Z"/>
    <path d="M216.11,440.19h-13.77l-1.55,3.26c-.37.78-.56,1.39-.56,1.84,0,.86.56,1.39,1.71,1.63v.75h-11.01v-.75c.67-.11,1.18-.32,1.5-.61.35-.29.72-.91,1.18-1.79l10.93-22.13c.4-.83.61-1.58.61-2.19,0-.72-.51-1.31-1.5-1.71v-.75h11.63v.75c-.99.4-1.47.99-1.47,1.82,0,.59.21,1.31.67,2.17l11.33,21.46c.61,1.18,1.12,1.95,1.47,2.3s.91.59,1.63.72v.72h-12.22v-.72c1.15-.19,1.74-.75,1.74-1.63,0-.56-.21-1.23-.67-2.06l-1.66-3.07ZM213.94,436l-4.89-9.6-4.65,9.6h9.54Z"/>
    <path d="M291.39,428.57c4.09,1.55,6.15,4.41,6.15,8.61,0,3.34-1.2,5.93-3.58,7.83-2.43,1.9-5.43,2.67-10.13,2.67h-24.94v-.86c1.28-.35,1.71-.86,1.71-1.95v-30.87c0-1.1-.43-1.6-1.71-1.95v-.86h24.7c2.38,0,4.28.19,5.72.53s2.7.96,3.8,1.82c2.17,1.68,3.23,4.14,3.23,7.32,0,3.56-1.66,6.12-4.95,7.7ZM268.57,425.71h13.98c2.11,0,3.61-.32,4.44-.94.94-.72,1.42-1.82,1.42-3.31,0-3.07-1.6-4.25-5.85-4.25h-13.98v8.5ZM268.57,441.66h13.53c2.51,0,4.33-.35,5.43-1.04,1.26-.8,1.9-2.11,1.9-3.93s-.64-3.1-1.9-3.93c-1.1-.69-2.89-1.04-5.43-1.04h-13.53v9.94Z"/>
    <path d="M331.62,440.19h-13.77l-1.55,3.26c-.37.78-.56,1.39-.56,1.84,0,.86.56,1.39,1.71,1.63v.75h-11.01v-.75c.67-.11,1.18-.32,1.5-.61.35-.29.72-.91,1.18-1.79l10.93-22.13c.4-.83.61-1.58.61-2.19,0-.72-.51-1.31-1.5-1.71v-.75h11.63v.75c-.99.4-1.47.99-1.47,1.82,0,.59.21,1.31.67,2.17l11.33,21.46c.61,1.18,1.12,1.95,1.47,2.3s.91.59,1.63.72v.72h-12.22v-.72c1.15-.19,1.74-.75,1.74-1.63,0-.56-.21-1.23-.67-2.06l-1.66-3.07ZM329.45,436l-4.89-9.6-4.65,9.6h9.54Z"/>
    <path d="M384.88,420.47v15.85c0,3.61-.72,6.28-2.14,7.97-2.3,2.7-6.63,4.04-12.99,4.04-4.25,0-7.7-.64-10.32-1.95-1.9-.94-3.18-2.3-3.88-4.04-.64-1.6-.96-3.61-.96-6.01v-15.85c0-1.1-.43-1.58-1.71-1.98v-.75h10.61v.75c-1.31.35-1.74.88-1.74,1.98v14.41c0,1.68.13,2.97.43,3.85s.83,1.63,1.55,2.19c1.47,1.15,3.58,1.74,6.33,1.74s4.86-.59,6.33-1.74c.72-.56,1.2-1.31,1.5-2.19s.43-2.17.43-3.85v-14.41c0-1.1-.4-1.58-1.71-1.98v-.75h9.97v.75c-1.28.35-1.71.88-1.71,1.98Z"/>
    <path d="M441.22,447.17l-13.45-24.7v22.4c0,1.1.43,1.6,1.71,1.95v.86h-10.72v-.86c1.28-.35,1.71-.86,1.71-1.95v-30.9c0-1.07-.43-1.58-1.71-1.92v-.86h14.06v.86c-.83.21-1.26.69-1.26,1.47,0,.35.13.78.37,1.23l9.94,18.34,10.08-18.02c.45-.83.67-1.42.67-1.79,0-.72-.45-1.15-1.34-1.23v-.86h13.79v.86c-1.28.35-1.71.86-1.71,1.92v30.9c0,1.1.43,1.6,1.71,1.95v.86h-11.39v-.86c1.26-.32,1.71-.86,1.71-1.95v-22.4l-14.19,24.7Z"/>
    <path d="M500.26,440.19h-13.77l-1.55,3.26c-.37.78-.56,1.39-.56,1.84,0,.86.56,1.39,1.71,1.63v.75h-11.01v-.75c.67-.11,1.18-.32,1.5-.61.35-.29.72-.91,1.18-1.79l10.93-22.13c.4-.83.61-1.58.61-2.19,0-.72-.51-1.31-1.5-1.71v-.75h11.63v.75c-.99.4-1.47.99-1.47,1.82,0,.59.21,1.31.67,2.17l11.33,21.46c.61,1.18,1.12,1.95,1.47,2.3s.91.59,1.63.72v.72h-12.22v-.72c1.15-.19,1.74-.75,1.74-1.63,0-.56-.21-1.23-.67-2.06l-1.66-3.07ZM498.09,436l-4.89-9.6-4.65,9.6h9.54Z"/>
    <path d="M530.35,427.95v17c0,1.1.45,1.66,1.71,2v.72h-9.94v-.75c1.26-.32,1.71-.88,1.71-1.98v-24.48c0-1.1-.43-1.58-1.71-1.98v-.75h11.49v.75c-.78.19-1.18.53-1.18,1.04,0,.43.29.94.86,1.5l16.04,15.93v-16.49c0-1.1-.43-1.63-1.71-1.98v-.75h9.94v.75c-1.28.35-1.71.88-1.71,1.98v24.48c0,1.1.43,1.6,1.71,2v.72h-10.72v-.72c.78-.16,1.18-.48,1.18-.99,0-.24-.11-.51-.32-.78s-.69-.8-1.47-1.58l-15.88-15.66Z"/>
    <path d="M592.09,440.19h-13.77l-1.55,3.26c-.37.78-.56,1.39-.56,1.84,0,.86.56,1.39,1.71,1.63v.75h-11.01v-.75c.67-.11,1.18-.32,1.5-.61.35-.29.72-.91,1.18-1.79l10.93-22.13c.4-.83.61-1.58.61-2.19,0-.72-.51-1.31-1.5-1.71v-.75h11.63v.75c-.99.4-1.47.99-1.47,1.82,0,.59.21,1.31.67,2.17l11.33,21.46c.61,1.18,1.12,1.95,1.47,2.3s.91.59,1.63.72v.72h-12.22v-.72c1.15-.19,1.74-.75,1.74-1.63,0-.56-.21-1.23-.67-2.06l-1.66-3.07ZM589.93,436l-4.89-9.6-4.65,9.6h9.54Z"/>
    <path d="M640.95,436.13h-6.82c-1.15,0-1.66.43-2,1.71h-.72v-7.91h.72c.35,1.26.86,1.68,2,1.68h14.25v.78c-1.26.35-1.71.96-1.71,2.22v6.31c0,1.1.45,1.66,1.71,2v.61c-5.77,3.18-11.52,4.78-17.27,4.78-4.95,0-8.95-1.18-12.03-3.5-1.66-1.28-2.99-2.86-4.01-4.76-1.2-2.25-1.79-4.65-1.79-7.19,0-3.53,1.1-6.66,3.26-9.41,3.39-4.25,8.39-6.36,15.02-6.36,2.91,0,6.23.64,9.94,1.92,1.47.51,2.35.75,2.59.75.29,0,.67-.13,1.07-.43l.64.35-3.56,7.54-.64-.32v-.16c0-.67-.67-1.34-1.98-2.03-2.43-1.31-5.05-1.95-7.86-1.95-3.23,0-5.88.88-7.94,2.65-2.17,1.84-3.26,4.36-3.26,7.48,0,2.94.99,5.29,2.97,7.06,2.03,1.79,4.89,2.7,8.55,2.7s6.44-.64,8.85-1.95v-4.57Z"/>
    <path d="M668.18,434.96v7.3h19c1.1,0,1.63-.43,1.98-1.74h.75v8.87h-.75c-.32-1.26-.88-1.71-1.98-1.71h-27.88v-.75c1.26-.32,1.71-.88,1.71-1.98v-24.48c0-1.1-.43-1.58-1.71-1.98v-.75h27.05c1.15,0,1.66-.43,2-1.71h.72v8.87h-.72c-.35-1.31-.86-1.74-2-1.74h-18.18v6.58h11.28c1.1,0,1.6-.43,2-1.71h.72v8.66h-.72c-.35-1.28-.86-1.74-2-1.74h-11.28Z"/>
    <path d="M720.14,446.74l-10.91-18.74v16.95c0,1.1.43,1.6,1.71,2v.72h-9.94v-.75c1.26-.32,1.71-.88,1.71-1.98v-24.48c0-1.1-.43-1.63-1.71-1.98v-.75h12.64v.75c-.83.27-1.26.78-1.26,1.52s.29,1.63.91,2.67l7.46,12.59,7.51-12.4c.86-1.42,1.28-2.41,1.28-2.99,0-.72-.43-1.2-1.31-1.39v-.75h12.32v.75c-1.28.35-1.71.88-1.71,1.98v24.48c0,1.1.43,1.66,1.71,2v.72h-10.58v-.75c1.26-.32,1.71-.88,1.71-1.98v-16.95l-11.55,18.74Z"/>
    <path d="M761.27,434.96v7.3h19c1.1,0,1.63-.43,1.98-1.74h.75v8.87h-.75c-.32-1.26-.88-1.71-1.98-1.71h-27.88v-.75c1.26-.32,1.71-.88,1.71-1.98v-24.48c0-1.1-.43-1.58-1.71-1.98v-.75h27.05c1.15,0,1.66-.43,2-1.71h.72v8.87h-.72c-.35-1.31-.86-1.74-2-1.74h-18.18v6.58h11.28c1.1,0,1.6-.43,2-1.71h.72v8.66h-.72c-.35-1.28-.86-1.74-2-1.74h-11.28Z"/>
    <path d="M802.33,427.95v17c0,1.1.45,1.66,1.71,2v.72h-9.94v-.75c1.26-.32,1.71-.88,1.71-1.98v-24.48c0-1.1-.43-1.58-1.71-1.98v-.75h11.49v.75c-.78.19-1.18.53-1.18,1.04,0,.43.29.94.86,1.5l16.04,15.93v-16.49c0-1.1-.43-1.63-1.71-1.98v-.75h9.94v.75c-1.28.35-1.71.88-1.71,1.98v24.48c0,1.1.43,1.6,1.71,2v.72h-10.72v-.72c.78-.16,1.18-.48,1.18-.99,0-.24-.11-.51-.32-.78s-.69-.8-1.47-1.58l-15.88-15.66Z"/>
    <path d="M857.89,423.17v21.78c0,1.1.43,1.6,1.71,2v.72h-10.58v-.75c1.26-.32,1.71-.88,1.71-1.98v-21.78h-8.82c-1.15,0-1.66.45-2,1.74h-.72v-8.87h.75c.32,1.26.83,1.71,1.98,1.71h24.81c1.15,0,1.66-.43,2-1.71h.72v8.87h-.72c-.35-1.28-.86-1.74-2-1.74h-8.82Z"/>
  </g>
  <g id="Ebene_1">
    <path class="st1" d="M76.07,204.12c.16,8.48,1.74,17.16,4.9,25.1,2.1,5.29,5.04,10.24,8.55,14.8,2.69,3.62,6.02,6.8,9.58,9.62,3.13,2.34,6.67,4.64,10.31,6.2,5.02,2.15,10.56,3.58,16.02,3.87.98.05,2.18.1,2.43.11.1,0-.05-.01-.42-.06-2.15-.18-3.94-1.75-5.22-3.49-1.48-1.93-2.37-4.23-3.18-6.48-.69-2.44-1.11-5.15-1.34-7.66-.34-65.14,0-169.29-.12-225.01-1.07-27.28-40.41-27.33-41.43.09l-.08,182.91Z"/>
    <path class="st1" d="M76.06,203.73"/>
    <path class="st2" d="M69.85,18.87v184.06c0,15.02,0-191.52,0-191.52L28.6,60.07s0,127.36-.23,143.22c0,2.7,0-7.02,0-22.58,0-21.54,0-52.14,0-75.19-.02-13.41,0,45.16,0,81.08-.05,25.63-.5,34.87,6.93,56.65,8.82,24.7,26.91,46.44,50.55,58.19,9.55,4.87,19.84,7.97,30.45,9.34,5.36.49,10.67,1.28,16.04.24,24.12-6.04,20.06-40.49-4.81-40.95-34.38-.2-58.26-33.92-57.69-66.33"/>
    <path class="st1" d="M148.65,363.32c-50.6-.08-96.07-31.18-113.36-78.79-4-11.24-6.4-23.31-6.79-35.21-.1-1.73-.15-5.82-.1-6.91.05,0,.16.31.32.72,5.52,16.1,14.38,30.91,26.27,43.11,14.31,14.74,33.14,25.39,53.28,29.41,8.07,1.47,16.17,2.65,24.36,1.53,12.66-2.14,22.39-13.84,22.12-26.78.06-3.18-.82-6.95-1.77-8.1,7.95,8.04,33.97,33.8,34.85,34.9,7.14,21.75-9.19,45.61-32.33,46.01"/>
    <path class="st1" d="M445.99,218.16v20.74s-.07,6.57-.07,6.57l-.54,6.59-.73,6.48-1.17,6.49-1.35,6.39-1.81,6.31-1.98,6.13-2.35,6.04-2.61,5.94-2.89,5.77-3.16,5.58-3.43,5.41-3.7,5.23-3.97,4.96-4.15,4.69-4.33,4.51-4.69,4.24-4.78,3.97-4.96,3.7-5.14,3.43-5.32,3.07-5.5,2.8-5.59,2.44-5.68,2.16-5.77,1.81-5.85,1.53-5.96,1.09-5.94.81-6.05.46-6.04.09-6.04-.27-5.95-.55-5.95-.99-5.95-1.26-5.86-1.63-5.77-1.89-5.59-2.26-5.37-2.52c-1,1.93-2.28,3.68-3.81,5.22-8.14,8.14-21.37,8.17-29.55.09-.05-.01-.1-.03-.13-.06l-40.56-40.65c-.09-.07-.13-.19-.1-.3.04-.13.17-.22.31-.18,14.09,4.15,28.91-3.94,33.06-18.02.58-1.96.92-3.97,1.04-6,0-.15.13-.25.27-.25.06,0,.16.01.2.04l5.31,3.87,5.48,3.69,5.65,3.41,5.93,3.14,6.01,2.87,6.11,2.6,6.28,2.25,6.47,2.06,6.46,1.71,6.64,1.34,6.65,1.17,6.72.72,6.74.45,9.34.18,1.68-.18h.84l3.3-.36.88-.18.83-.09,1.59-.36.93-.09.78-.18.78-.26,1.75-.37.77-.26.84-.19,4.12-1.34.78-.34.83-.28.79-.34.73-.28,3.22-1.43.79-.44.73-.37,1.6-.89.73-.37.79-.44,1.52-.98.82-.46.69-.52,1.54-1,2.86-2.15.82-.55,2.76-2.41.73-.55.7-.61.61-.7.74-.65,1.96-1.97,1.25-1.42.73-.73,1.88-2.14,1.15-1.51.64-.73.52-.78,1.18-1.54.53-.79.64-.82.53-.79.53-.89.55-.82.43-.79.55-.91.55-.82.43-.87.55-.92,3.14-6.28.34-.96.46-.93,2.5-6.72.53-1.96.37-1.01,1.07-4.03.17-.97.28-1.09.35-2.05.28-1.02.35-2.05.09-1.05.18-1.02.09-1.05.18-1.02.45-5.28v-1.06l.09-1.02v-23.25c-.29-16.88-7.08-32.7-19.11-44.54-12.04-11.84-27.97-18.36-44.85-18.36-35.27,0-63.96,28.69-63.96,63.96,0,15.2,5.43,29.95,15.3,41.52.04,0,.07.01.1.02.15.04.23.19.19.34-.04.14-.18.22-.33.19-.04-.01-.09-.03-.13-.04-.03,0-.05-.01-.07-.02-27.37-7.76-46.37-32.68-46.71-61.03V23.23c0-1.17,0-1.74.03-2.02h-.03c0-11.56,9.4-20.96,20.96-20.96s20.85,9.29,20.96,20.76c.05.04.09.12.09.2v107.3c15.71-9.21,33.64-14.24,51.86-14.54,58.43-.94,106.74,45.77,107.71,104.19Z"/>
    <path class="st2" d="M197,290.81c.88,26.79,39.32,27.68,41.36.87.24-2.96.06-6.37.11-9.48.15-1.75-.43-4.25.55-2.99,5.26,5.05,10.91,9.55,16.95,13.63,24.83,16.42,56.13,25.45,85.86,21.93,28.23-5,49.07-30.59,54.39-57.98,1.48-6.81,1.95-13.67,1.83-20.65-.24-9.63.81-20.12-1.52-29.46-6.88-31.55-41.15-51.81-72.08-42.65-16.95,4.75-31.57,17.21-38.11,34.13,5.72-4.91,12.57-9.09,20.23-10.54,48.09-8.75,69.85,55.22,26.64,77.7-8.15,3.9-17.56,5.14-26.56,4.94-38.3.3-69.39-36.52-68.18-69.44,0-1.31,0-122.01,0-166.08,0-11.33,0-17.57,0-15.49,0,9.35,0,182.65,0,181.58.03-13.61-.02-70.33,0-94.92-.07-46.99-.07-94.44-.07-94.44,0,0-9.93,11.89-18.16,21.43-6.38,7.31-16.16,19.24-21.26,25.09-1.15,1.43-1.98,2.35-1.98,2.35,0,0,0,241.47,0,230.08,0-10.42,0-230.08,0-230.09"/>
    <path class="st2" d="M656.46,199.89c0-22.85-18.53-41.38-41.38-41.38-20.85,0-38.45,15.51-41.06,36.2h-.07c2.42-9.08,10.59-15.42,19.98-15.51,11.53-.1,20.95,9.16,21.06,20.68h.09v87.08c0,11.43,9.26,20.69,20.69,20.69s20.69-9.27,20.69-20.69"/>
    <path class="st0" d="M841.06,199.89v138.89c0,5.49-2.18,10.75-6.06,14.63-8.08,8.08-21.18,8.08-29.26,0l-.03.04-40.65-40.65.03-.03c14.25,4.19,29.21-3.96,33.4-18.21.72-2.47,1.09-5.02,1.09-7.59v-87.08c0-26.33-21.35-47.68-47.68-47.68s-47.68,21.34-47.68,47.68v138.89c0,5.49-2.18,10.75-6.06,14.63-8.07,8.08-21.18,8.08-29.26,0l-.03.04-40.66-40.66c14.24,4.16,29.17-3.99,33.36-18.22.72-2.47,1.18-5.02,1.18-7.59v-87.08c0-26.33-21.35-47.68-47.68-47.68s-47.68,21.34-47.68,47.68v138.89h-.09c0,5.49-2.18,10.75-6.06,14.63-8.07,8.07-21.12,8.08-29.21.04h0s-40.66-40.67-40.66-40.67c14.24,4.16,29.17-3.99,33.36-18.22.73-2.47,1.18-5.02,1.18-7.59v-155.54c0-9.02,5.83-16.99,14.42-19.72,10.89-3.46,22.53,2.56,25.99,13.45l.13.1c37.8-24.62,88.04-17.09,116.96,17.53h.13c16.92-20.26,41.95-31.96,68.34-31.96,49.18,0,89.06,39.87,89.06,89.06h.09Z"/>
    <path class="st2" d="M519.73,121.54l-41.47,49.03v116.4-116.4,116.4c0,11.43,9.26,20.69,20.69,20.69s20.78-9.27,20.78-20.69h0V121.54v165.43"/>
    <path class="st2" d="M793.29,199.89c0-22.85-18.53-41.38-41.38-41.38-20.85,0-38.44,15.51-41.05,36.2h.02c2.41-9.08,10.59-15.42,19.98-15.51,11.53-.1,20.95,9.16,21.06,20.68h0v87.08h0c0,11.43,9.36,20.69,20.78,20.69s20.69-9.27,20.69-20.69l-.09-87.08Z"/>
  </g>
</svg>