<?xml version="1.0" encoding="UTF-8"?>
<svg id="Ebene_1" xmlns="http://www.w3.org/2000/svg" version="1.1" viewBox="0 0 595.28 315.18">
  <!-- Generator: Adobe Illustrator 29.8.1, SVG Export Plug-In . SVG Version: 2.1.1 Build 2)  -->
  <defs>
    <style>
      .st0 {
        fill: none;
      }
    </style>
  </defs>
  <path class="st0" d="M95.66,37.72c-2.11,0-3.83,1.69-3.83,3.79,0,2.1,1.7,3.8,3.82,3.8,2.11,0,3.83-1.69,3.83-3.79,0-2.09-1.7-3.8-3.82-3.8ZM95.69,44.08c-1.44,0-2.61-1.14-2.62-2.57,0-1.43,1.15-2.59,2.59-2.6,1.44,0,2.61,1.14,2.62,2.57,0,1.43-1.15,2.59-2.59,2.6Z"/>
  <path class="st0" d="M95.64,47.74c-1.03.64-1.24,2.07-1.24,2.07v4.32s2.46,0,2.46,0v-4.19s-.23-1.63-1.22-2.21Z"/>
  <g>
    <path d="M95.66,38.91c-1.44,0-2.6,1.17-2.59,2.6,0,1.43,1.18,2.58,2.62,2.57,1.44,0,2.6-1.17,2.59-2.6,0-1.43-1.18-2.58-2.62-2.57Z"/>
    <g>
      <path class="st0" d="M95.66,37.72c-2.11,0-3.83,1.69-3.83,3.79,0,2.1,1.7,3.8,3.82,3.8,2.11,0,3.83-1.69,3.83-3.79,0-2.09-1.7-3.8-3.82-3.8Z"/>
      <path class="st0" d="M95.64,47.74c-1.03.64-1.24,2.07-1.24,2.07v4.32s2.46,0,2.46,0v-4.19s-.23-1.63-1.22-2.21Z"/>
      <path d="M552.84,46.16l-20.45,7.17-16.58-.04.08-42.85h-.27s-12.55-.02-12.55-.02l-.08,42.85h-.02s-6.52.02-6.52.02V15.08h-.02s-13.38-.03-13.38-.03l-.09,44.74-17.69-.03v4.8s-8.23-.02-8.23-.02l.02-7.83s.52-3.03-3.05-3.04c-3.56,0-31.83-.06-31.83-.06,0,0-2.29-.26-2.3,2.27,0,2.13-.01,6.77-.02,8.18h-7.13s.01-7.43.01-7.43c0,0,.47-3.54-2.54-3.54-1.82,0-9.35-.02-16.31-.03v-3.08s-9.67-.02-9.67-.02v3.08c-1.97,0-3.21,0-3.21,0,0,0-3.39-.68-3.4,3.53,0,4.21-.03,13.65-.03,13.65l-8.91-.02-16.01-17.25-17.88,17.67-8.89-.02-2.97-14.33h-2.11s0-3.68,0-3.68h-3.73s0,3.66,0,3.66l-14.01-.03-2.68,5.33-14.64-.03v-4.04s-21.52-.04-21.52-.04v7.05s-4.53.08-4.53.08v-5.69s-4.89-4.88-4.89-4.88l-20.28-.04-.37,3.74-4.94.07v-2.8s-.76,0-.76,0v2.89s-7.97-.1-7.97-.1l-2.65-3.83-2.77,2.74v-1.64s-1,0-1,0v2.33s-1.1,1.08-1.1,1.08v7.03s-2.69-.19-2.69-.19l-15.57-2.52-5.55,4.12-4.41-.09-5.4-5.63h-1.02s-4,4.62-4,4.62l-9.51.49v-3.79s-11.65,1.22-11.65,1.22l-10.57-5.05-7.57,7.95-6.62.81-.57-10.21-26.73.61-.29-21.88c.25,0,.48,0,.68,0-1.51-1.68-3.01-5.83-3.48-8.36-.48-2.54-2.69-27.54-2.69-27.54,0,0-2.11,25.1-2.35,27.88-.29,3.24-3.17,8.01-3.17,8.01,0,0,.16,0,.44,0l.22,22.14-17.12.39-4.44,9.33-9.01-3.56-7.88,5.2-.12-2.8-4.7-3.93-4.95,3.26-4.02-9.46-12.58,6.47-14.06-5.53L0,47.4v267.77h595.28V33.36l-42.44,12.8ZM96.86,54.14h-2.47s0-4.33,0-4.33c0,0,.21-1.43,1.24-2.07.99.58,1.23,2.21,1.23,2.21v4.19ZM95.64,45.31c-2.11,0-3.82-1.71-3.82-3.8,0-2.1,1.72-3.79,3.83-3.79,2.11,0,3.82,1.71,3.82,3.8,0,2.1-1.72,3.79-3.83,3.79ZM492.6,16.41h2.44s0,1.88,0,1.88h-2.44s0-1.88,0-1.88ZM492.6,20.06h2.44s0,1.88,0,1.88h-2.44s0-1.88,0-1.88ZM492.59,23.7h2.44s0,1.88,0,1.88h-2.44s0-1.88,0-1.88ZM492.58,27.35h2.44s0,1.88,0,1.88h-2.44s0-1.88,0-1.88ZM492.57,31h2.44s0,1.88,0,1.88h-2.44s0-1.88,0-1.88ZM492.57,34.65h2.44s0,1.88,0,1.88h-2.44s0-1.88,0-1.88ZM492.56,38.3h2.44s0,1.88,0,1.88h-2.44s0-1.88,0-1.88ZM492.55,41.95h2.44s0,1.88,0,1.88h-2.44s0-1.88,0-1.88ZM492.55,45.6h2.44s0,1.88,0,1.88h-2.44s0-1.88,0-1.88ZM492.54,49.25h2.44s0,1.88,0,1.88h-2.44s0-1.88,0-1.88ZM492.53,52.89h2.44s0,1.88,0,1.88h-2.44s0-1.88,0-1.88ZM492.52,56.54h2.44s0,1.88,0,1.88h-2.44s0-1.88,0-1.88ZM488.52,16.4h2.44s0,1.88,0,1.88h-2.44s0-1.88,0-1.88ZM488.51,20.05h2.44s0,1.88,0,1.88h-2.44s0-1.88,0-1.88ZM488.51,23.7h2.44s0,1.88,0,1.88h-2.44s0-1.88,0-1.88ZM488.5,27.34h2.44s0,1.88,0,1.88h-2.44s0-1.88,0-1.88ZM488.49,30.99h2.44s0,1.88,0,1.88h-2.44s0-1.88,0-1.88ZM488.48,34.64h2.44s0,1.88,0,1.88h-2.44s0-1.88,0-1.88ZM488.48,38.29h2.44s0,1.88,0,1.88h-2.44s0-1.88,0-1.88ZM488.47,41.94h2.44s0,1.88,0,1.88h-2.44s0-1.88,0-1.88ZM488.46,45.59h2.44s0,1.88,0,1.88h-2.44s0-1.88,0-1.88ZM488.46,49.24h2.44s0,1.88,0,1.88h-2.44s0-1.88,0-1.88ZM488.45,52.89h2.44s0,1.88,0,1.88h-2.44s0-1.88,0-1.88ZM488.44,56.53h2.44s0,1.88,0,1.88h-2.44s0-1.88,0-1.88ZM484.44,16.39h2.44s0,1.88,0,1.88h-2.44s0-1.88,0-1.88ZM484.43,20.04h2.44s0,1.88,0,1.88h-2.44s0-1.88,0-1.88ZM484.42,23.69h2.44s0,1.88,0,1.88h-2.44s0-1.88,0-1.88ZM484.42,27.34h2.44s0,1.88,0,1.88h-2.44s0-1.88,0-1.88ZM484.41,30.99h2.44s0,1.88,0,1.88h-2.44s0-1.88,0-1.88ZM484.4,34.63h2.44s0,1.88,0,1.88h-2.44s0-1.88,0-1.88ZM484.39,38.28h2.44s0,1.88,0,1.88h-2.44s0-1.88,0-1.88ZM484.39,41.93h2.44s0,1.88,0,1.88h-2.44s0-1.88,0-1.88ZM484.38,45.58h2.44s0,1.88,0,1.88h-2.44s0-1.88,0-1.88ZM484.37,49.23h2.44s0,1.88,0,1.88h-2.44s0-1.88,0-1.88ZM484.37,52.88h2.44s0,1.88,0,1.88h-2.44s0-1.88,0-1.88ZM484.36,56.53h2.44s0,1.88,0,1.88h-2.44s0-1.88,0-1.88ZM512.21,11.76h2.34s0,1.8,0,1.8h-2.34s0-1.8,0-1.8ZM512.21,15.25h2.34s0,1.8,0,1.8h-2.34s0-1.8,0-1.8ZM512.2,18.74h2.34s0,1.8,0,1.8h-2.34s0-1.8,0-1.8ZM512.19,22.23h2.34s0,1.8,0,1.8h-2.34s0-1.8,0-1.8ZM512.18,25.72h2.34s0,1.8,0,1.8h-2.34s0-1.8,0-1.8ZM512.18,29.22h2.34s0,1.8,0,1.8h-2.34s0-1.8,0-1.8ZM512.17,32.71h2.34s0,1.8,0,1.8h-2.34s0-1.8,0-1.8ZM512.17,36.2h2.34s0,1.8,0,1.8h-2.34s0-1.8,0-1.8ZM512.16,39.69h2.34s0,1.8,0,1.8h-2.34s0-1.8,0-1.8ZM512.15,43.18h2.34s0,1.8,0,1.8h-2.34s0-1.8,0-1.8ZM512.14,46.68h2.34s0,1.8,0,1.8h-2.34s0-1.8,0-1.8ZM512.14,50.17h2.34s0,1.8,0,1.8h-2.34s0-1.8,0-1.8ZM508.3,11.75h2.34s0,1.8,0,1.8h-2.34s0-1.8,0-1.8ZM508.3,15.24h2.34s0,1.8,0,1.8h-2.34s0-1.8,0-1.8ZM508.29,18.73h2.34s0,1.8,0,1.8h-2.34s0-1.8,0-1.8ZM508.28,22.22h2.34s0,1.8,0,1.8h-2.34s0-1.8,0-1.8ZM508.28,25.72h2.34s0,1.8,0,1.8h-2.34s0-1.8,0-1.8ZM508.27,29.21h2.34s0,1.8,0,1.8h-2.34s0-1.8,0-1.8ZM508.26,32.7h2.34s0,1.8,0,1.8h-2.34s0-1.8,0-1.8ZM508.26,36.19h2.34s0,1.8,0,1.8h-2.34s0-1.8,0-1.8ZM508.25,39.68h2.34s0,1.8,0,1.8h-2.34s0-1.8,0-1.8ZM508.24,43.18h2.34s0,1.8,0,1.8h-2.34s0-1.8,0-1.8ZM508.24,46.67h2.34s0,1.8,0,1.8h-2.34s0-1.8,0-1.8ZM508.23,50.16h2.34s0,1.8,0,1.8h-2.34s0-1.8,0-1.8ZM504.4,11.74h2.34s0,1.8,0,1.8h-2.34s0-1.8,0-1.8ZM504.39,15.23h2.34s0,1.8,0,1.8h-2.34s0-1.8,0-1.8ZM504.38,18.73h2.34s0,1.8,0,1.8h-2.34s0-1.8,0-1.8ZM504.38,22.22h2.34s0,1.8,0,1.8h-2.34s0-1.8,0-1.8ZM504.37,25.71h2.34s0,1.8,0,1.8h-2.34s0-1.8,0-1.8ZM504.36,29.2h2.34s0,1.8,0,1.8h-2.34s0-1.8,0-1.8ZM504.36,32.69h2.34s0,1.8,0,1.8h-2.34s0-1.8,0-1.8ZM504.35,36.19h2.34s0,1.8,0,1.8h-2.34s0-1.8,0-1.8ZM504.34,39.68h2.34s0,1.8,0,1.8h-2.34s0-1.8,0-1.8ZM504.34,43.17h2.34s0,1.8,0,1.8h-2.34s0-1.8,0-1.8ZM504.33,46.66h2.34s0,1.8,0,1.8h-2.34s0-1.8,0-1.8ZM504.32,50.15h2.34s0,1.8,0,1.8h-2.34s0-1.8,0-1.8Z"/>
    </g>
  </g>
</svg>